<?xml version="1.0" encoding="UTF-8"?>
<svg xmlns="http://www.w3.org/2000/svg" version="1.1" viewBox="0 0 512 512">
  <defs>
    <style>
      .cls-1 {
        fill: #fff;
      }
    </style>
  </defs>
  <!-- Generator: Adobe Illustrator 28.7.3, SVG Export Plug-In . SVG Version: 1.2.0 Build 164)  -->
  <g>
    <g id="Layer_1">
      <g>
        <path class="cls-1" d="M256,0C114.6,0,0,114.6,0,256s114.6,256,256,256,256-114.6,256-256S397.4,0,256,0ZM256,469.3c-117.8,0-213.3-95.5-213.3-213.3S138.2,42.7,256,42.7s213.3,95.5,213.3,213.3-95.5,213.3-213.3,213.3Z"/>
        <path class="cls-1" d="M228.4,134.2c-8.3-8.3-21.8-8.3-30.2,0-8.3,8.3-8.3,21.8,0,30.2l91.6,91.6-91.6,91.6c-8.3,8.3-8.3,21.8,0,30.2,8.3,8.3,21.8,8.3,30.2,0l106.7-106.7c8.3-8.3,8.3-21.8,0-30.2l-106.7-106.7Z"/>
      </g>
    </g>
  </g>
</svg>