<?xml version="1.0" encoding="UTF-8"?>
<svg xmlns="http://www.w3.org/2000/svg" version="1.1" viewBox="0 0 512 512">
  <defs>
    <style>
      .cls-1 {
        fill: #09828b;
      }
    </style>
  </defs>
  <!-- Generator: Adobe Illustrator 28.7.3, SVG Export Plug-In . SVG Version: 1.2.0 Build 164)  -->
  <g>
    <g id="Capa_1">
      <path class="cls-1" d="M479.4,250.3c-61.9-123.7-60-120-60.4-120.7-2.7-4.8-7.8-7.6-13.1-7.6s-300.2,0-301.4,0c-5.1.4-9.6,3.5-11.9,8,0,0,0,.1-.1.2l-60,120c0,0,0,.2-.1.3,0,0,0,.1-.1.2,0,0,0,.1,0,.2,0,0,0,0,0,0-2.3,5.2-1.5,11.3,2.3,15.7,0,0,0,.1.1.2l210,240s0,0,0,0c5.9,6.6,16.4,6.8,22.4,0,0,0,0,0,0,0l210-240s0,0,0,0c3.8-4.4,4.9-10.9,2.1-16.5ZM381.7,152l-38.3,76.6-57.4-76.6h95.7ZM316,242h-120l60-80,60,80ZM226,152l-57.4,76.6-38.3-76.6h95.7ZM106,170.5l35.7,71.5h-71.5l35.7-71.5ZM79.1,272h76.5l57.4,153.1-134-153.1ZM256,454.3l-68.4-182.3h136.7l-68.4,182.3ZM299,425.1l57.4-153.1h76.5l-134,153.1ZM370.3,242l35.7-71.5,35.7,71.5h-71.5Z"/>
      <path class="cls-1" d="M256,0c-8.3,0-15,6.7-15,15v45c0,8.3,6.7,15,15,15s15-6.7,15-15V15c0-8.3-6.7-15-15-15Z"/>
      <path class="cls-1" d="M206.6,64.4l-30-30c-5.9-5.9-15.4-5.9-21.2,0-5.9,5.9-5.9,15.4,0,21.2l30,30c5.9,5.9,15.4,5.9,21.2,0s5.9-15.4,0-21.2Z"/>
      <path class="cls-1" d="M356.6,34.4c-5.9-5.9-15.4-5.9-21.2,0l-30,30c-5.9,5.9-5.9,15.4,0,21.2s15.4,5.9,21.2,0l30-30c5.9-5.9,5.9-15.4,0-21.2Z"/>
    </g>
  </g>
</svg>