<?xml version="1.0" encoding="UTF-8"?>
<svg xmlns="http://www.w3.org/2000/svg" version="1.1" viewBox="0 0 512 512">
  <defs>
    <style>
      .cls-1 {
        fill: #fff;
      }
    </style>
  </defs>
  <!-- Generator: Adobe Illustrator 28.7.3, SVG Export Plug-In . SVG Version: 1.2.0 Build 164)  -->
  <g>
    <g id="Layer_1">
      <g>
        <path class="cls-1" d="M498.2,13.8c-8.9-8.9-20.7-13.8-33.3-13.8h-160.7c-12.6,0-24.4,4.9-33.3,13.8-8.9,8.9-13.8,20.7-13.8,33.3v128.5c0,12.6,4.9,24.4,13.8,33.3,8.9,8.9,20.7,13.8,33.3,13.8h16s0,0,0,0h25.9l27.7,27.7c2.8,2.8,6.6,4.4,10.6,4.4s7.8-1.6,10.6-4.4l27.7-27.7h25.9s0,0,0,0h16.1c12.6,0,24.4-4.9,33.3-13.8,8.9-8.9,13.8-20.7,13.8-33.3V47.1c0-12.6-4.9-24.4-13.8-33.3ZM367.4,111.4c0-9.4,7.7-17.1,17.1-17.1s17.1,7.7,17.1,17.1-7.7,17.1-17.1,17.1-17.1-7.7-17.1-17.1ZM384.5,158.5c21.9,0,40.6,14.4,46.9,34.3h-14.8c-4,0-7.8,1.6-10.6,4.4l-21.5,21.5-21.5-21.5c-2.8-2.8-6.6-4.4-10.6-4.4h-14.8c6.4-19.9,25-34.3,46.9-34.3ZM482,175.7c0,4.6-1.8,8.9-5,12.1-3.2,3.2-7.5,5-12.1,5h-2.5c-4.5-23.3-19.2-43-39.3-54.3,5.4-7.7,8.6-17,8.6-27.1,0-26-21.1-47.1-47.1-47.1s-47.1,21.1-47.1,47.1,3.2,19.5,8.6,27.1c-20.1,11.2-34.8,30.9-39.3,54.3h-2.5c-4.6,0-8.9-1.8-12.1-5-3.2-3.2-5-7.5-5-12.1V47.1c0-4.6,1.8-8.9,5-12.1,3.2-3.2,7.5-5,12.1-5h160.7c4.6,0,8.9,1.8,12.1,5,3.2,3.2,5,7.5,5,12.1v128.5Z"/>
        <path class="cls-1" d="M497,417.7h-27.4l41.6-124.9c1.5-4.6.8-9.6-2.1-13.5-2.8-3.9-7.3-6.2-12.2-6.2h-224.9c-6.5,0-12.2,4.1-14.2,10.3l-7.2,21.7c-15-16.8-33.7-29.8-54.5-38,16.4-14.5,26.7-35.7,26.7-59.3,0-43.7-35.6-79.3-79.3-79.3s-79.3,35.6-79.3,79.3,10.3,44.7,26.7,59.2C37.7,288.1,0,340,0,400.6s1.8,14.7,5,21c-3,2.7-5,6.7-5,11.1v64.3c0,8.3,6.7,15,15,15h482c8.3,0,15-6.7,15-15v-64.3c0-8.3-6.7-15-15-15ZM282.9,303.1h193.3l-38.2,114.6h-193.3l38.2-114.6ZM94.3,207.8c0-27.2,22.1-49.3,49.3-49.3s49.3,22.1,49.3,49.3-22.1,49.3-49.2,49.3c0,0,0,0,0,0s0,0,0,0c-27.2,0-49.2-22.1-49.2-49.3ZM143.5,287.1s0,0,0,0,0,0,0,0c38.8,0,74.8,19.9,95.6,52.3l-26.1,78.3h-6.7c-7-36.6-39.2-64.3-77.8-64.3H47.1c-2.4,0-4.8.2-7.1.5,17.8-39.4,57.5-66.9,103.5-66.9ZM30,400.6c0-4.6,1.8-8.9,5-12.1,3.2-3.2,7.5-5,12.1-5h81.4c21.9,0,40.6,14.4,46.9,34.3H47.1c-9.4,0-17.1-7.7-17.1-17.1ZM482,482H30v-34.3h452v34.3Z"/>
        <path class="cls-1" d="M352.4,375.4h16.1c8.3,0,15-6.7,15-15s-6.7-15-15-15h-16.1c-8.3,0-15,6.7-15,15s6.7,15,15,15Z"/>
      </g>
    </g>
  </g>
</svg>